HIERARCHY
ROOT hip
{
	OFFSET 0.000000 0.000000 0.000000 
	CHANNELS 6 Xposition Yposition Zposition Xrotation Zrotation Yrotation
	JOINT abdomen
	{
		OFFSET 0.000000 3.402643 0.000000 
		CHANNELS 3 Xrotation Zrotation Yrotation
		JOINT chest
		{
			OFFSET 0.000000 8.438565 -0.680529 
			CHANNELS 3 Xrotation Zrotation Yrotation
			JOINT neck
			{
				OFFSET 0.000000 10.207942 -0.272212 
				CHANNELS 3 Xrotation Zrotation Yrotation
				JOINT head
				{
					OFFSET 0.000000 3.130431 0.000000 
					CHANNELS 3 Xrotation Zrotation Yrotation
					End Site
					{
						OFFSET 0.000000 3.130435 0.000000 
					}
				}
			}
			JOINT lCollar
			{
				OFFSET 3.470700 6.669187 -0.816635 
				CHANNELS 3 Yrotation Zrotation Xrotation
				JOINT lShldr
				{
					OFFSET 3.198488 0.000000 0.000000 
					CHANNELS 3 Zrotation Yrotation Xrotation
					JOINT lForeArm
					{
						OFFSET 10.139888 0.000000 0.000000 
						CHANNELS 3 Yrotation Zrotation Xrotation
						JOINT lHand
						{
							OFFSET 8.370511 0.000000 0.000000 
							CHANNELS 3 Zrotation Yrotation Xrotation
							End Site
							{
								OFFSET 4.083176 0.000000 0.000000 
							}
						}
					}
				}
			}
			JOINT rCollar
			{
				OFFSET -3.470700 6.669187 -0.816635 
				CHANNELS 3 Yrotation Zrotation Xrotation
				JOINT rShldr
				{
					OFFSET -3.198488 0.000000 0.000000 
					CHANNELS 3 Zrotation Yrotation Xrotation
					JOINT rForeArm
					{
						OFFSET -10.139888 0.000000 0.000000 
						CHANNELS 3 Yrotation Zrotation Xrotation
						JOINT rHand
						{
							OFFSET -8.370511 0.000000 0.000000 
							CHANNELS 3 Zrotation Yrotation Xrotation
							End Site
							{
								OFFSET -4.083176 0.000000 0.000000 
							}
						}
					}
				}
			}
		}
	}
	JOINT lThigh
	{
		OFFSET 5.308129 -1.633274 1.361059 
		CHANNELS 3 Xrotation Zrotation Yrotation
		JOINT lShin
		{
			OFFSET -2.041588 -20.007561 0.000000 
			CHANNELS 3 Xrotation Zrotation Yrotation
			JOINT lFoot
			{
				OFFSET 0.000000 -19.190928 -1.224953 
				CHANNELS 3 Xrotation Yrotation Zrotation
				End Site
				{
					OFFSET 0.000000 -2.449906 4.627600 
				}
			}
		}
	}
	JOINT rThigh
	{
		OFFSET -5.308129 -1.633274 1.361059 
		CHANNELS 3 Xrotation Zrotation Yrotation
		JOINT rShin
		{
			OFFSET 2.041588 -20.007561 0.000000 
			CHANNELS 3 Xrotation Zrotation Yrotation
			JOINT rFoot
			{
				OFFSET 0.000000 -19.190928 -1.224953 
				CHANNELS 3 Xrotation Yrotation Zrotation
				End Site
				{
					OFFSET 0.000000 -2.449906 4.627600 
				}
			}
		}
	}
}
MOTION
Frames: 16
Frame Time: 0.033333
1.381215 36.981499 5.835154 1.406250 4.042969 43.066410 31.552732 -1.435547 2.285156 -11.992188 -12.597656 2.908026 -28.544924 0.966797 -22.578123 14.218751 5.146484 -20.809671 8.417968 17.832031 0.937500 -113.496094 -54.091801 47.706932 -70.029297 -3.564453 -56.561893 14.814451 18.593748 4.179688 -8.232422 -14.033202 0.595703 -11.132807 100.449219 -48.965004 27.177736 1.943359 -9.394863 23.750000 -34.902344 -15.405980 -30.053949 31.782318 1.752997 74.570358 1.095688 -3.842623 -23.302814 -16.549109 -14.758492 -55.255329 -26.676022 1.090083 70.714485 -1.249691 3.583782 -6.020679 10.403481 7.815123 
1.395908 36.978115 5.973331 1.054688 3.505848 38.858112 32.138668 -0.390625 -0.888672 -11.796875 -8.906250 -0.431199 -27.998047 1.523438 -17.343489 14.042969 5.146484 -15.721779 7.304688 17.226563 0.827186 -125.390617 -61.464844 63.018761 -61.591797 -3.486328 -53.564453 2.441406 22.509768 0.286943 -10.400391 -14.863280 0.578677 -1.513674 93.046875 -47.519527 26.171877 2.578125 -20.166454 13.583984 -41.493034 -10.484405 -26.821228 32.561504 6.196251 76.501503 1.262058 -3.792146 -25.942492 -10.326861 -12.615267 -56.548870 -24.246508 1.004741 70.350182 -1.249459 3.396265 -5.895597 12.036776 8.128376 
1.452579 36.960045 6.002017 1.406250 2.285156 35.508202 32.509766 1.162109 -3.925781 -11.611328 -6.093750 -3.769531 -27.207033 2.060547 -12.636718 13.164063 5.498047 -11.004923 6.240234 17.880857 0.898438 34.921883 -112.519531 -96.268784 -51.806641 -3.437500 -49.921288 -14.648437 21.601561 -6.168280 -13.818359 -14.746093 0.625000 -37.001953 85.351563 -86.884804 26.972656 2.822266 -26.835936 2.822266 -44.716797 -3.476562 -25.787792 33.090416 8.459784 78.783676 1.251604 -3.927132 -28.322388 -5.715496 -10.411819 -57.719982 -22.644852 -0.414780 69.648392 -1.240297 3.355639 -5.515254 14.242191 8.112899 
1.577699 36.946053 6.013444 2.109375 0.693359 32.519646 32.851559 2.802734 -6.572266 -11.777344 -3.984375 -6.943360 -25.839844 2.236328 -8.261337 11.923829 6.201172 -7.000898 6.152343 19.472656 0.869141 8.310564 -109.179688 -68.192818 -44.238281 -3.447265 -46.640625 -26.972658 19.843750 -10.507813 -17.187498 -13.349609 0.568661 -22.792969 79.755859 -73.281410 29.794922 3.134766 -32.294926 -4.765625 -45.664063 2.050781 -25.790545 33.622219 9.799953 80.350334 1.603280 -4.028273 -29.251173 -3.284276 -9.602864 -58.980431 -21.600151 -2.641349 68.618935 -1.064483 3.083251 -5.013072 17.128452 8.322727 
1.780012 36.920280 6.036532 2.978516 -0.712891 28.828005 32.988285 4.169922 -8.925071 -12.119141 -2.050781 -9.404297 -24.794922 1.718750 -3.994140 10.693358 6.904297 -3.007813 6.992188 21.142580 1.070696 -21.328121 -108.994141 -32.528763 -40.683590 -3.339844 -39.501385 -32.939453 18.330080 -12.490234 -19.541016 -12.041015 0.478516 -10.322265 75.419922 -63.506168 37.226563 3.457031 -48.164650 -16.220703 -42.910156 9.785156 -26.171257 34.549480 10.969549 81.760994 1.768736 -3.773419 -29.129295 -3.140266 -9.284208 -60.628944 -20.398088 -4.926519 67.722389 -1.240264 3.116942 -4.192350 19.740692 8.519776 
2.073630 36.867226 6.075597 3.867188 -1.591797 24.423553 32.949219 4.931641 -10.361329 -12.802734 0.234375 -11.171874 -23.193359 0.332031 0.351619 9.277344 7.783204 0.810547 7.705078 22.441408 1.109553 -42.861332 -111.181641 -4.453126 -40.810547 -3.095703 -33.867188 -36.132813 17.265623 -13.037110 -20.410156 -11.943359 0.519599 5.195313 70.615234 -52.920471 48.222656 3.720703 -63.310547 -22.285156 -36.562500 12.441406 -25.468237 35.936100 13.019887 82.302841 1.417421 -3.743795 -27.890301 -3.091018 -9.154151 -62.209785 -18.815449 -6.569743 67.025459 -1.064368 3.356420 -2.366137 22.771030 8.097659 
2.448056 36.760998 6.127020 4.746094 -2.294922 19.677734 32.753910 5.283204 -10.995194 -13.681640 2.177734 -11.708613 -21.894531 -1.289063 3.847656 8.398438 8.310547 3.770943 8.496095 22.851563 1.031364 -53.339840 -114.150391 10.938354 -42.890625 -3.125000 -31.132282 -35.205078 16.328125 -11.953125 -20.507813 -12.724610 0.588088 15.878905 65.019531 -47.480469 59.296875 3.671875 -71.308594 -24.003906 -32.167973 12.094409 -24.080151 37.191765 15.513262 82.989876 1.768304 -3.839989 -26.586096 -4.030340 -9.529045 -63.685661 -17.351137 -8.318257 66.849815 -1.064326 3.349408 0.202648 26.129234 6.922802 
2.863995 36.590515 6.192905 5.087890 -2.285156 15.458984 32.412109 5.410157 -10.780330 -14.199219 3.232422 -11.708984 -20.898438 -1.972656 6.025054 7.861328 8.310547 5.685005 9.111328 23.095703 1.123047 -56.660160 -117.021484 17.343750 -45.410156 -2.939453 -27.636721 -32.666016 15.410155 -10.329437 -20.605469 -13.671873 0.558949 21.669922 60.136723 -45.792309 68.046875 3.642578 -76.298828 -27.294924 -28.964844 12.812500 -22.294323 37.613548 17.517902 83.670021 1.924325 -4.049067 -25.849072 -4.725212 -9.922570 -65.111954 -16.316267 -9.245521 67.202003 -1.044879 3.356663 2.767078 29.198843 5.796751 
3.283082 36.352402 6.247477 4.912109 -1.767578 12.304386 32.089840 5.820313 -10.302734 -14.023438 3.408203 -11.357420 -20.390625 -1.542969 6.874737 8.398438 7.080078 6.583235 10.341797 23.417969 1.236353 -58.603508 -119.951164 21.534508 -47.910160 -2.851563 -25.507813 -28.994143 14.814453 -8.701172 -21.289064 -13.740235 0.546875 23.867188 56.855473 -45.734013 73.945313 3.437500 -78.613869 -30.595703 -25.332029 13.120822 -20.556931 37.285103 17.903309 85.121864 1.588964 -3.717526 -25.415823 -5.578537 -10.232155 -65.892990 -15.828056 -9.827885 67.551758 -1.054400 3.403281 4.599540 31.358946 4.928041 
3.727356 36.075459 6.272546 3.867188 -1.064453 10.009583 31.943361 5.976563 -9.530232 -13.847657 3.056641 -10.654298 -19.863281 -0.830078 6.982280 9.277344 5.322266 6.787109 11.953125 23.935545 1.083985 -62.285156 -121.855469 26.875002 -51.845707 -2.841797 -25.439455 -23.740232 15.156250 -7.067759 -22.197266 -13.261720 0.537110 22.773438 55.263672 -46.945641 77.949219 3.457031 -80.147072 -31.503906 -22.119143 11.920151 -18.982548 36.279438 17.778814 86.846733 2.109510 -3.845540 -25.237846 -6.160333 -10.393116 -65.855240 -15.282048 -9.257429 68.075798 -1.055509 3.240709 5.130104 32.996635 4.242465 
4.197168 35.801434 6.233482 2.109375 0.000000 8.076171 31.806637 6.425781 -8.496094 -14.560546 2.353515 -9.960538 -17.919920 -0.878906 6.454928 10.517579 3.388672 6.123624 12.978516 24.453125 1.259766 -70.361320 -122.587891 35.470287 -56.171875 -2.656250 -23.066406 -18.427734 14.394531 -5.300304 -22.519531 -13.496094 0.546875 18.476563 54.580074 -49.933449 80.312500 3.613281 -81.826172 -30.263674 -19.033203 9.785155 -17.060600 34.540909 16.863770 88.983040 1.567931 -3.715971 -25.097967 -6.587780 -10.455283 -64.914330 -15.085481 -7.754638 68.627800 -1.083839 3.090205 5.973849 34.513210 3.666630 
4.700562 35.615677 6.102882 -0.351562 1.406250 6.328363 31.503906 6.992187 -7.226564 -14.560546 1.298828 -9.081811 -15.605470 -1.503906 5.458985 12.802734 1.806641 5.146792 14.208984 24.990234 1.269531 -81.933594 -124.062508 46.808315 -59.736328 -2.568359 -19.931641 -13.583984 13.193360 -3.759766 -23.203125 -13.730469 0.510130 9.492188 56.035156 -56.699219 80.478516 3.544922 -83.281250 -27.480469 -14.501953 6.696773 -14.951036 32.253876 16.133242 91.062721 1.737573 -3.857567 -25.246441 -7.210097 -10.675394 -63.469719 -14.734263 -6.010346 68.794579 -1.064342 3.090544 7.378220 35.302723 2.823298 
5.173288 35.601337 5.828738 -3.173828 2.636719 4.736290 30.839844 7.607422 -6.151050 -14.736329 0.419922 -8.388673 -11.894532 -3.349610 4.560547 14.736329 0.927734 3.984534 14.941406 25.136721 1.357422 84.570313 -53.632809 -120.068359 -62.158203 -2.529297 -18.291018 -7.958984 12.109375 -2.175686 -23.710938 -15.205078 0.656857 -2.841797 58.281254 -67.304688 78.613281 3.486328 -83.818359 -24.208986 -9.667968 3.818359 -12.666142 29.628702 15.699861 92.293053 2.074080 -4.064296 -24.415203 -10.139831 -11.643635 -61.389828 -14.402700 -3.294359 68.076744 -0.898100 3.352189 9.185646 35.022827 1.993758 
5.593541 35.869648 5.348200 -6.337891 4.042969 3.515625 29.814451 7.929688 -5.332032 -14.921873 -0.283203 -7.685602 -7.128906 -5.732421 3.534180 16.318357 0.917969 2.812500 15.732422 25.751955 1.196929 71.884766 -50.078129 -106.748047 -62.607418 -2.373047 -16.894127 -1.904297 9.814453 -0.722656 -24.277344 -17.314453 0.800781 -16.621094 59.218750 -79.794922 75.927734 3.398438 -84.365814 -21.845705 -5.605469 1.962891 -10.908276 27.001484 14.889592 91.782463 1.898619 -4.046173 -22.648003 -15.355421 -13.460108 -58.630699 -13.876580 -0.848415 65.810219 -0.888781 3.079144 13.281248 35.148506 -0.285543 
5.929604 36.481720 4.566347 -9.316406 5.273438 2.647340 28.945311 7.792968 -4.824219 -14.746093 -0.634766 -7.158312 -1.660156 -7.607459 2.293619 17.197268 0.917969 1.611484 16.171875 26.630857 1.347656 61.308590 -45.468750 -96.367188 -61.552734 -2.509766 -15.556641 2.851563 6.162110 0.069409 -25.048830 -20.039063 0.927735 -30.039063 58.320316 -93.476563 73.164063 3.417969 -84.248627 -20.341797 -2.460938 0.546875 -8.798643 23.991924 15.471377 89.312958 2.099781 -3.762177 -20.278919 -18.795771 -13.884003 -54.470650 -13.017510 1.597285 61.427784 -0.546735 2.939795 17.921951 33.627373 -2.911628 
6.183924 37.498886 3.400156 -11.953125 6.152344 1.768625 27.871092 7.363280 -4.580078 -14.218750 -0.810547 -6.621232 3.818360 -8.769531 1.160621 17.373047 1.269531 0.742404 16.279297 27.783207 1.455078 53.710938 -40.800781 -91.100128 -59.101559 -2.197265 -12.987906 6.894531 1.581999 0.000266 -26.220703 -22.929688 1.044922 -39.804691 56.230469 -106.386719 70.449219 3.603516 -81.875618 -18.339844 0.078125 -0.166001 -6.845335 20.562283 15.540753 84.929222 1.768528 -3.724023 -19.261986 -18.542923 -13.499740 -49.083824 -12.644951 3.424856 53.520679 -0.525418 2.973432 23.954941 31.146738 -5.798985 
